#N canvas 1252 200 804 552 10;
#X obj 324 140 netreceive 3000;
#X floatatom 300 202 5 0 0 0 - - -;
#X obj 461 118 netreceive 3001;
#X floatatom 473 198 5 0 0 0 - - -;
#X obj 369 437 ctlout;
#X obj 558 164 print ctlnum;
#X obj 367 187 print value;
#X floatatom 215 345 5 0 0 0 - - -;
#X floatatom 76 253 3 0 0 0 - - -;
#X obj 73 197 notein;
#X floatatom 32 251 3 0 0 0 - - -;
#X text 68 179 MIDI IN;
#X obj 201 447 noteout;
#X text 206 325 Channel;
#X floatatom 239 261 3 0 0 0 - - -;
#X floatatom 209 260 3 0 0 0 - - -;
#X obj 213 225 ctlin;
#X text 207 203 USB ctl;
#X text 319 117 Touchless ctlin;
#X text 456 91 Touchless ctl num;
#X obj 288 439 ctlout;
#X connect 0 0 1 0;
#X connect 0 0 6 0;
#X connect 1 0 4 0;
#X connect 2 0 3 0;
#X connect 2 0 5 0;
#X connect 3 0 4 1;
#X connect 7 0 4 2;
#X connect 7 0 12 2;
#X connect 7 0 20 2;
#X connect 8 0 12 1;
#X connect 9 0 10 0;
#X connect 9 1 8 0;
#X connect 10 0 12 0;
#X connect 14 0 20 1;
#X connect 15 0 20 0;
#X connect 16 0 15 0;
#X connect 16 1 14 0;
